<svg version="1.1" xmlns="http://www.w3.org/2000/svg" xmlns:xlink="http://www.w3.org/1999/xlink" enable-background="new 0 0 1000 1000" xml:space="preserve" width="1000" height="1000" style=""><rect id="backgroundrect" width="100%" height="100%" x="0" y="0" fill="none" stroke="none"/>
<metadata> Svg Vector Icons : http://www.onlinewebfonts.com/icon </metadata>

<g class="currentLayer" style=""><title>Layer 1</title><g id="svg_1" class="" fill="#ffffff" fill-opacity="1" opacity="1"><g transform="translate(0.000000,511.000000) scale(0.100000,-0.100000)" id="svg_2" fill="#ffffff" fill-opacity="1" opacity="1"><path d="M4608.6,4996.3C3608.2,4868.3,2709.8,4252,2259.4,3382c-248.9-483.6-346.1-912.6-324.8-1455.5c19-436.2,87.7-723,277.4-1123.6c687.4-1467.3,2638.4-5480.6,2690.5-5532.7c78.2-80.6,135.1-80.6,222.8,2.4c49.8,45,424.3,813.1,1332.2,2730.8C7149.7-529.3,7766,772.1,7822.9,897.7c270.2,595,320,1299,135.1,1939.1c-227.6,784.6-806,1476.8-1547.9,1851.4c-192,94.8-526.2,211-772.8,263.1C5386.1,5003.4,4862.2,5027.1,4608.6,4996.3z M5608.9,4524.6c888.9-201.5,1616.7-851,1903.5-1694.9c175.4-514.4,168.3-1159.2-19-1616.7C7363.1,890.6,5021-3985.5,5006.8-3968.9c-33.2,33.2-2491.4,5139.2-2536.4,5267.2c-113.8,320-147,794.1-80.6,1163.9c85.3,495.4,301.1,917.4,651.9,1287.2c433.8,455.1,941.1,718.3,1576.4,820.2C4836.1,4602.8,5367.1,4579.1,5608.9,4524.6z" id="svg_3" fill="#ffffff" fill-opacity="1" opacity="1"/><path d="M4810.1,3619c-469.4-61.6-910.3-341.3-1178.1-749.1c-170.7-263.1-237.1-481.2-251.3-824.9c-14.2-331.9,19-512,144.6-777.5c256-554.7,787-917.4,1396.2-957.7c303.4-19,554.7,33.2,846.3,175.4c187.3,90.1,258.4,142.2,429,312.9c168.3,168.3,222.8,241.8,315.3,429.1c123.3,253.7,180.1,476.5,180.1,730.1c2.4,706.4-431.4,1329.8-1092.8,1571.6c-154.1,56.9-514.4,123.3-602.1,113.8C4985.5,3640.4,4900.1,3628.5,4810.1,3619z M5364.7,3154.4c502.5-137.5,860.5-580.8,893.7-1109.4c23.7-362.7-101.9-694.5-357.9-948.2c-495.4-490.7-1256.3-486-1744.7,9.5c-253.6,256-355.6,507.3-355.6,870c0,405.4,206.2,801.2,526.3,1009.8C4658.3,3201.8,4992.6,3256.3,5364.7,3154.4z" id="svg_4" fill="#ffffff" fill-opacity="1" opacity="1"/><path d="M4784,2971.9c-514.4-128-858.1-637.7-775.2-1142.6c92.5-561.8,623.5-955.3,1161.5-867.6c443.3,73.5,787,414.8,862.9,855.8C6154.1,2523.9,5480.9,3144.9,4784,2971.9z M5374.2,2699.3c177.8-87.7,303.4-215.7,391.1-403c49.8-109,61.6-165.9,61.6-322.4c0-168.3-9.5-211-78.2-348.5c-90.1-182.5-218.1-308.2-405.3-393.5c-189.6-87.7-455.1-87.7-647.2,0c-170.7,80.6-336.6,244.2-417.2,417.2c-87.7,189.6-90.1,457.5-2.4,644.8C4480.6,2730.1,4954.7,2905.5,5374.2,2699.3z" id="svg_5" fill="#ffffff" fill-opacity="1" opacity="1"/></g></g></g></svg>